<svg width="472" height="718" viewBox="0 0 472 718" fill="none" xmlns="http://www.w3.org/2000/svg">
<g id="left-side-kelp">
<path id="l-lettuce" d="M240.88 692.326C241.132 692.296 241.402 690.822 241.342 690.036C240.621 686.718 240.547 683.576 237.781 681.01C234.471 677.89 231.782 674.046 229.204 670.254C225.828 664.033 225.138 656.515 222.554 649.943C220.172 643.459 216.866 637.396 213.203 631.524C205.506 621.318 204.847 607.751 209.281 595.937C210.671 585.609 212.401 575.309 213.165 564.915C214.968 530.877 246.431 531.273 261.913 506.744C265.307 501.96 267.268 496.639 267.891 490.907C268.651 487.293 266.399 483.105 268.511 479.835C269.03 480.322 269.909 480.744 270.01 481.307C272.003 491.781 268.249 502.766 261.465 510.786C253.176 523.205 239.595 529.042 228.238 537.932C215.83 548.91 216.11 559.194 214.545 574.402C213.886 579.713 213.249 585.036 212.328 590.305C209.911 601.635 205.667 613.983 212.289 624.746C218.687 635.271 224.876 646.014 227.38 658.194C228.973 665.958 232.878 672.49 237.956 678.496C238.061 678.43 238.169 678.362 238.274 678.295C235.252 670.091 232.853 661.646 228.409 654.038C224.956 648.185 221.941 642.096 220.039 635.531C215.707 619.244 212.464 604.329 216.352 587.519C218.509 578.078 218.646 567.926 223.569 559.407C232.65 541.684 249.04 529.862 263.538 516.832C267.664 513.267 271.246 509.393 272.742 503.976C283.5 478.881 259.266 472.114 269.646 447.458C273.102 436.936 281.287 425.254 274.244 414.481C271.435 408.442 263.64 411.639 259.518 407.148C252.738 405.759 249.159 397.49 253.249 391.545C260.576 381.207 273.547 375.315 286.011 378.252C293.327 379.353 300.338 373.261 302.352 366.552C303.192 363.879 303.504 361.044 304.183 358.313C306.141 354.723 311.614 358.037 312.052 361.399C312.154 361.858 312.479 362.613 312.746 362.634C318.566 364.432 322.551 360.617 324.604 355.414C328.344 346.396 338.493 342.179 347.517 345.416C354.15 347.404 360.065 346.548 365.501 342.11C369.178 339.108 370.498 334.495 373.583 331.118C370.431 332.394 368.05 334.451 366.915 337.654C364.38 344.793 355.541 346.311 350.48 342.433C349.451 341.645 348.235 340.85 346.999 340.622C342.282 339.751 337.586 340.108 333.044 341.676C328.442 344.087 327.15 350.182 324.18 354.218C315.425 366.772 307.794 346.296 301.809 356.977C300.513 358.971 300.037 361.761 297.949 363.061C296.99 360.488 299.098 357.893 299.851 355.461C301.707 350.353 308.725 350.152 312.294 353.698C316.136 357.214 320.562 356.239 322.944 351.658C325.784 347.601 328.214 340.153 333.359 338.896C337.348 338.409 341.357 338.015 345.371 337.799C352.974 337.743 358.104 348.701 364.867 336.631C366.562 332.947 369.185 330.423 372.792 328.555C388.74 320.843 384.632 306.462 370.046 300.481C366.338 299.003 362.576 297.29 358.584 296.821C357.54 296.706 357.141 296.286 357.145 295.63C358.269 291.536 366.898 297.095 369.766 297.384C380.619 300.633 390.887 312.952 382.885 323.862C389.948 321.513 389.241 311.422 386.905 305.813C384.422 299.987 381.197 295.186 374.123 294.078C368.775 293.089 363.448 291.202 358.374 289.178C354.206 287.838 349.545 287.485 345.791 285.112C339.526 280.683 338.909 273.867 338.538 267.077C338.661 259.018 345.024 252.945 349.521 246.829C352.14 243.163 355.915 240.799 359.852 238.762C368.526 233.383 378.038 229.503 387.189 225.206C399.789 218.135 395.159 207.51 401.568 197.435C407.557 187.692 420.122 184.978 425.834 175.007C429.613 169.022 431.048 163.703 426.051 156.951C424.871 155.354 423.473 154.71 421.603 155.039C410.666 156.429 404.888 166.315 398.346 174.009C391.094 182.845 380.983 188.602 372.452 196.09C361.918 205.412 350.169 205.258 344.639 219.571C341.14 227.951 337.369 236.211 333.53 244.443C331.737 248.308 329.979 252.185 326.722 255.146C325.665 256.175 325.42 258.278 324.029 259.042C318.338 261.464 311.944 262.877 309.047 269.249C303.896 279.939 305.409 291.935 301.984 303.041C299.476 310.94 296.598 318.915 293.043 326.385C292.28 329.762 290.014 332.146 287.751 334.498C266.417 356.516 281.661 340.41 271.649 327.212C263.808 314.429 264.792 298.904 270.031 285.357C271.421 281.204 273.761 277.624 277.214 274.989C283.976 269.462 277.361 263.351 286.27 254.452C293.912 244.825 303.864 255.377 308.666 249.831C312.14 241.822 312.753 232.945 315.446 224.702C327.472 187.878 300.439 190.392 299.757 189.979C297.162 188.41 296.545 183.819 298.678 181.647C302.527 178.002 306.715 174.496 309.951 170.297C314.941 161.924 313.005 151.908 310.774 142.946C307.689 125.671 287.359 124.494 292.721 114.793C293.344 113.347 294.311 110.535 292.84 109.46C289.103 108.658 286.508 112.104 282.95 111.477C279.662 110.738 278.317 108.066 279.35 104.686C281.815 96.1903 297.105 94.9051 294.619 84.483C289.569 74.5722 277.585 72.3589 267.503 71.7565C265.524 71.9211 262.418 71.6864 261.129 73.448C253.908 85.2639 264.358 96.8592 259.634 108.374C252.43 124.48 237.304 137.532 236.856 156.3C236.884 163.878 237.042 171.516 235.508 178.986C230.819 198.559 219.412 216.748 219.363 237.351C219.542 237.353 219.721 237.356 219.899 237.359C219.605 223.185 232.675 213.099 232.405 199.112C231.687 194.374 234.772 190.525 236.755 186.498C243.944 173.137 239.658 157.567 245.111 143.748C250.318 120.722 270.301 121.797 263.006 96.2428C261.801 90.9582 261.223 85.6596 262.208 80.298C262.439 79.0513 263.181 77.871 263.822 76.7399C263.976 76.4632 264.827 76.2671 265.072 76.4422C265.377 76.6523 265.57 77.3388 265.471 77.7345C265.296 78.4454 264.729 79.0618 264.571 79.7727C263.559 84.3534 264.039 88.9271 264.792 93.4867C273.064 126.504 252.377 117.731 245.408 149.863C242.862 163.454 245.282 177.872 237.438 190.252C236.016 192.78 234.38 195.239 234.625 198.44C235.014 203.451 233.459 208.137 231.484 212.62C223.328 228.354 220.348 232.525 222.246 251.139C223.153 264.17 216.733 275.985 210.776 286.995C210.174 296.966 208.381 307.108 210.818 316.972C208.693 305.67 213.711 294.982 216.849 284.378C217.007 283.884 217.938 283.639 218.509 283.278C220.032 285.804 216.226 293.819 215.389 296.921C212.671 303.852 211.981 310.953 213.739 318.088C216.226 327.874 220.512 337.253 222.848 347.082C225.009 357.361 223.871 367.855 224.039 378.262C223.937 379.598 222.68 380.774 222.463 382.038C222.211 384.373 222.074 386.728 222.042 389.076C220.162 412.468 240.838 427.556 249.043 447.452C262.477 485.483 236.495 501.592 219.931 531.071C219.188 532.348 218.26 533.71 218.575 535.524C218.656 535.987 217.154 537.11 216.264 537.264C215.101 537.465 215.143 536.296 215.185 535.39C215.504 528.909 219.09 523.886 222.753 518.997C235.137 506.223 243.545 490.095 245.086 472.188C247.537 460.625 242.887 449.235 238.145 438.852C231.796 422.92 215.973 414.732 216.667 396.075C217.234 387.89 220.775 379.837 221.783 371.669C222.683 358.726 220.855 345.026 215.858 333.47C216.457 337.618 220.981 353.884 216.698 356.182C214.422 353.097 216.821 348.602 215.501 345.257C213.914 339.813 211.561 334.588 209.425 329.313C205.544 321.991 203.342 314.384 203.285 306.064C201.734 294.189 206.252 282.719 211.876 272.469C219.745 260.027 215.55 246.392 214.1 232.966C213.925 225.209 217.098 217.393 216.401 209.744C214.685 205.748 214.278 200.544 209.953 198.359C204.347 193.877 203.44 185.3 203.096 178.461C205.036 152.955 173.066 131.032 199.601 109.008C204.284 105.243 207.95 99.6923 208.675 93.7879C209.46 82.2801 200.494 73.5496 197.626 62.9314C195.297 56.5471 198.561 49.9913 199.829 43.7016C202.757 33.6367 209.474 21.0818 200.046 12.3512C196.299 9.44098 193.609 5.73577 191.203 1.72242C190.272 0.622777 189.442 -0.711514 187.663 0.444163C187.435 0.594752 186.994 0.437172 186.658 0.391646C180.575 0.100975 180.743 6.02647 180.876 10.4391C180.207 26.545 168.675 25.2387 166.188 35.027C166.153 37.4118 166.475 39.9579 167.337 42.1677C169.557 48.8005 169.414 55.8291 168.489 62.5916C166.489 70.965 156.214 63.0119 152.495 59.5448C149.378 62.5111 146.496 66.7416 142.651 68.6012C137.184 70.2857 131.661 71.5814 126.156 68.0688C118.637 64.129 119.002 71.8616 115.797 76.5018C111.885 81.3276 104.156 79.1913 101.092 74.418C98.9138 71.3397 95.5869 71.0701 92.3685 70.3486C89.7665 75.0274 93.244 79.4645 94.4382 83.9051C95.0756 86.262 96.2768 87.964 98.2695 89.4034C100.956 91.3435 103.67 93.3361 105.014 96.6176C106.244 99.6188 105.351 102.991 102.682 104.907C101.589 105.961 103.085 109.554 103.603 110.762C107.984 118.124 111.808 125.664 113.538 134.167C115.864 146.417 124.104 157.228 134.397 164.095C146.237 174.321 155.574 186.999 163.922 200.131C166.377 204.145 169.179 207.815 172.572 211.04C174.317 213.183 177.819 214.35 177.896 217.393C176.418 217.666 175.399 217.316 174.404 216.216C171.939 214.675 169.19 213.471 167.018 211.597C155.71 202.537 152.667 187.293 141.709 177.97C132.597 170.444 124.024 162.313 115.517 154.121C112.306 151.145 109.854 147.776 109.035 143.377C108.25 141.563 108.464 133.389 105.239 136.096C96.4869 143.598 85.9387 136.016 77.089 132.65C70.4947 128.437 66.807 124.97 58.5387 127.828C56.7807 128.346 54.9876 128.668 53.7829 130.367C53.212 131.169 52.1999 130.976 52.1019 129.852C52.7393 124.018 68.9153 122.75 72.6169 126.683C78.2377 130.98 84.6885 133.522 91.3459 135.746C96.5814 138.054 101.589 135.918 105.883 132.612C105.137 130.896 104.247 130.759 103.102 132.163C96.8967 140.025 83.2737 128.385 77.1906 124.613C72.8165 121.822 68.0467 121.549 63.0843 122.627C61.9987 122.827 60.5348 121.703 60.9446 120.505C62.0477 118.929 64.4781 119.938 66.0961 119.577C77.4357 117.483 83.8795 128.651 93.9619 131.218C100.556 133.508 103.981 131.354 98.5146 125.534C74.1263 107.295 90.1517 96.46 73.0442 89.4279C68.7191 88.3422 68.1868 84.0522 65.7284 81.086C63.2069 78.7186 60.5103 76.2321 60.2967 72.7055C60.0515 68.7132 58.248 66.9342 54.5849 66.1112C49.2232 64.2306 48.0535 71.3467 45.4305 74.4776C42.5833 79.6956 37.1867 82.1296 33.1173 86.2515C29.5697 90.0688 25.3497 93.2521 21.6866 96.9713C18.7273 99.5838 13.3377 105.411 9.27528 104.676C6.79233 102.855 3.47941 103.426 2.21167 106.224C0.915912 110.206 1.51824 114.657 1.01044 118.789C0.723272 122.081 -0.709027 125.299 0.439646 128.672C1.95954 131.796 1.95249 136.467 4.95025 138.502C11.8493 140.954 19.1441 141.973 25.5318 145.846C36.1431 151.824 36.2692 164.078 36.8575 174.759C37.1167 178.068 37.8731 178.783 41.1405 179.136C44.6705 179.518 48.1796 180.138 51.6887 180.716C58.7909 181.822 66.9156 184.326 66.9366 193.299C66.9646 196.479 67.0662 196.482 70.127 197.515C72.9391 198.342 75.8493 198.811 78.686 199.553C85.2453 201.585 91.2583 205.952 95.2472 211.439C98.1259 216.822 100.535 222.443 102.29 228.291C103.358 231.366 106.083 232.571 108.628 234.08C110.225 235.069 120.865 239.733 124.496 243.048C132.95 248.503 138.242 257.269 145.414 264.15C151.77 269.021 136.071 275.253 133.241 278.654C128.489 282.472 123.915 286.546 120.262 291.479C116.372 296.36 108.156 310.603 119.201 311.413C124.055 311.688 128.912 310.126 133.658 309.494C139.405 309.353 145.183 309.183 150.905 309.62C163.453 309.807 174.026 322.493 170.118 334.978C169.225 339.366 164.374 351.268 169.158 353.995C175.56 357.6 184.241 359.006 187.229 366.508C190.566 374.522 195.311 382.339 198.729 390.21C196.036 355.979 165.852 356.739 172.779 339.841C174.345 336.221 175.325 332.391 175.182 328.419C175.385 325.387 173.402 322.115 174.964 319.308C175.402 319.564 176.166 319.764 176.222 320.085C177.868 327.219 177.959 334.565 174.835 341.317C173.224 345.081 175.115 348.273 177.826 350.815C183.464 356.042 189.96 360.79 194.299 367.19C199.608 375.146 199.952 384.692 202.438 393.624C205.625 401.099 210.874 411.245 202.533 417.535C200.102 419.252 197.605 420.968 195.539 423.078C191.365 428.157 183.807 434.286 187.736 441.478C195.935 457.393 205.355 450.667 211.512 470.419C212.699 472.508 212.825 483.231 209.442 481.682C208.966 481.238 208.584 479.867 208.868 479.556C212.548 474.653 207.257 469.043 205.926 464.145C204.69 461.133 202.505 458.945 199.699 457.439C194.341 454.564 190.114 450.575 186.805 445.463C183.52 440.397 183.387 434.272 187.134 429.55C191.428 424.211 195.966 419.046 201.675 415.169C207.639 410.055 203.019 400.673 199.924 395.275C199.325 402.066 199.731 409.774 194.719 415.155C184.791 424.337 179.636 435.407 183.625 448.916C184.854 457.381 193.711 458.945 199.787 463.094C204.455 466.094 204.252 473.005 201.482 477.311C190.524 492.343 185.656 494.194 187.022 514.164C187.873 533.765 217.689 543.141 200.372 564.769C195.886 571.848 189.134 577.53 185.04 584.799C179.769 597.647 177.006 609.829 182.406 623.132C183.481 626.971 186.518 629.127 189.585 631.242C198.561 637.89 209.6 643.485 214.986 653.645C218.652 662.007 231.358 692.642 240.88 692.326ZM368.229 311.601C367.983 309.962 368.806 309.015 370.281 309.974C371.303 311.215 372.123 312.627 372.746 313.561C372.417 317.929 371.542 323.369 367.654 324.835C367.402 321.901 369.643 319.387 369.959 316.545C370.106 315.039 369.143 312.904 368.229 311.601ZM370.873 324.773C377.474 320.373 377.401 311.555 370.852 307.151C368.099 300.604 377.747 306.993 378.266 314.768C379.113 322.027 372.344 327.066 366.271 329.914C365.837 330.153 364.762 330.087 364.607 329.811C363.487 327.3 369.465 326.358 370.873 324.773ZM337.088 239.761C341.963 233.313 346.089 226.4 350.141 219.42C356.777 208.315 369.738 204.11 380.027 197.224C383.617 195.05 386.359 191.905 388.26 188.28C393.359 179.007 402.689 173.908 411.349 168.581C418.336 165.17 419.064 156.072 421.334 160.141C419.67 164.274 417.103 167.954 413.044 169.908C406.706 173.344 400.955 177.571 395.636 182.397C392.004 185.65 390.067 190.49 386.783 193.971C383.967 196.776 380.804 199.333 377.46 201.479C367.71 207.776 355.821 211.867 350.466 223.028C347.805 226.701 340.545 241.173 336.969 241.442C336.997 240.874 336.801 240.137 337.088 239.761ZM365.984 231.303C373.104 228.053 379.673 223.98 386.11 219.648C390.043 217.001 391.959 212.998 391.885 208.252C390.554 187.314 414.827 182.456 425.652 168.7C426.216 167.968 427.326 167.079 428.121 167.776C428.282 171.295 421.362 175.964 418.693 178.173C408.166 186.403 392.841 192.437 394.512 208.333C394.886 217.873 386.236 222.572 379.022 226.698C367.476 233.523 354.252 238.462 344.996 248.477C332.186 261.219 331.713 280.984 348.27 290.697C349.745 291.819 351.667 292.521 352.116 294.51C349.048 295.201 346.698 292.216 344.152 290.886C337.074 286.863 334.609 280.975 333.033 273.295C331.247 253.217 349.895 239.254 365.984 231.303ZM343.462 331.891C346.607 333.073 345.511 335.171 342.818 334.109C340.202 333.429 337.624 333.455 334.966 333.859C330.357 334.56 327.325 337.232 325.56 341.334C323.465 345.997 317.158 354.213 311.842 349.46C305.23 345.109 306.95 348.403 303.062 349C302.418 346.754 304.803 345.836 306.011 345.036C309.247 344.848 311.755 345.119 313.663 347.338C317.19 351.031 321.154 344.396 322.639 341.462C326.221 332.695 335.25 329.571 343.462 331.891ZM313.295 298.977C312.5 298.944 312.241 299.652 312.227 300.784C312.087 306.908 311.359 313.479 307.174 318.28C306.957 318.164 306.74 318.048 306.522 317.931C309.233 311.162 310.347 304.256 309.86 297.016C310.217 294.31 308.305 290.291 311.408 288.889C312.595 290.551 311.811 292.55 312.112 294.398C312.339 295.938 312.882 297.431 313.295 298.977ZM303.763 312.464C307.097 296.548 303.073 282.855 312.942 268.287C313.789 267.035 315.288 265.721 316.941 266.669C316.755 267.208 316.731 268.023 316.356 268.241C314.301 269.445 313.204 271.337 312.266 273.398C306.677 284.775 308.89 297.57 306.761 309.743C305.405 320.368 297.949 328.686 290.711 335.992C289.954 336.925 289.555 338.054 288.07 337.948C283.896 335.084 300.646 329.164 303.763 312.464ZM296.076 173.295C306.564 171.404 309.832 161.574 307.913 151.253C307.034 141.861 299.305 131.582 290.714 126.651C285.332 123.531 285.146 117.658 287.769 114.443C289.646 113.161 291.225 114.233 289.509 116.019C287.695 117.815 288.294 121.783 290.767 123.195C295.249 125.751 298.639 129.502 302.306 132.997C311.66 142.925 314.85 162.225 304.309 172.388C302.071 174.654 294.857 175.011 294.16 177.9C290.487 183.29 290.168 174.03 296.076 173.295ZM270.847 341.014C270.91 339.972 271.351 339.226 272.395 339.474C274.209 341.32 272.153 347.94 272.321 350.424C272.868 350.179 273.509 349.893 274.15 349.607C275.624 355.533 271.908 362.815 268.693 367.805C267.625 369.286 266.536 370.801 264.54 371.206C263.125 372.242 262.155 374.006 260.982 375.334C260.414 376.07 259.777 376.862 258.923 375.938C257.487 373.911 261.455 372.471 262.12 370.697C268.413 361.981 270.623 351.637 270.847 341.014ZM268.732 278.669C260.421 289.987 259.63 307.422 262.481 320.83C265.447 329.611 269.828 338.388 267.828 347.891C265.664 362.349 252.882 372.163 250.637 386.611C245.275 381.015 263.174 361.006 264.337 352.811C267.804 343.367 263.808 333.973 260.758 325.028C255.932 307.278 257.914 286.724 270.385 272.537C270.689 272.116 271.642 272.165 272.293 271.996C272.875 274.784 269.94 276.444 268.732 278.669ZM268.963 266.232C263.055 268.383 256.961 269.398 250.658 269.182C247.537 268.669 246.049 271.03 243.426 271.93C241.976 268.545 246.424 266.879 249.099 266.694C249.099 266.657 249.096 266.619 249.096 266.582C251.628 266.525 254.163 266.489 256.695 266.406C262.232 266.465 267.205 263.975 272.486 263.028C272.665 265.158 270.472 265.495 268.963 266.232ZM274.297 75.0449C279.56 74.6877 283.598 78.3474 287.839 80.8303C288.217 80.34 289.569 96.7891 288.049 91.7602C284.382 79.6046 280.373 79.9548 275.144 78.2563C272.997 77.5349 270.427 78.4034 268.35 77.1882C269.257 74.6072 272.111 75.22 274.297 75.0449ZM288.441 185.384C288.62 185.531 288.795 185.678 288.97 185.825C287.373 188.739 282.733 188.497 279.921 189.986C276.356 191.281 272.798 192.616 270.213 195.635C270.007 195.876 269.422 195.799 269.012 195.869C268.988 195.288 268.704 194.437 268.981 194.174C274.037 188.567 281.574 187.426 288.441 185.384ZM230.318 227.356C233.344 221.413 235.711 215.358 235.813 208.638C235.911 202.411 237.592 196.794 241.038 191.562C250.644 175.806 243.486 155.07 253.526 139.63C255.939 136.779 257.651 132.366 261.542 131.466C261.679 131.698 261.815 131.929 261.952 132.163C257.347 137.595 252.465 143.223 251.208 150.514C249.852 163.447 249.849 176.597 244.967 188.876C244.316 190.693 243.282 192.42 242.19 194.027C236.243 202.884 240.04 214.413 234.646 223.661C228.77 234.634 225.184 240.539 225.184 253.215C218.344 249.374 228.185 232.819 230.318 227.356ZM250.696 185.426C247.593 194.721 243.409 203.808 243.409 213.817C243.64 225.756 236.023 235.648 231.792 246.334C230.475 247.897 231.964 258.997 228.451 255.131C228.581 255.081 228.714 255.031 228.847 254.981C226.686 242.543 238.758 232.795 240.18 220.562C240.495 208.41 244.088 197 248.199 185.661C248.262 184.039 251.064 183.321 250.696 185.426ZM231.582 265.381C242.764 253.145 258.8 266.89 272.518 257.988C273.008 259.31 272.616 260.1 271.663 260.672C263.486 266.12 253.642 262.9 244.585 262.51C236.951 261.533 232.083 268.06 227.464 273.082C226.175 274.618 226.122 277.088 224.165 278.144C221.503 273.316 229.029 268.857 231.582 265.381ZM241.118 413.017C241.717 413.271 242.568 413.353 242.876 413.805C248.711 422.072 254.587 429.91 257.392 439.859C257.024 440.405 256.702 440.881 256.38 441.357C252.759 437.932 252.178 432.105 249.341 427.987C247.653 423.689 239.346 417.331 241.118 413.017ZM223.881 394.902C238.684 340.44 217.763 350.901 218.803 309.15C218.61 306.931 222.053 307.446 221.219 309.57C217.598 328.947 233.869 345.745 231.358 365.132C229.978 375.203 229.54 386.316 224.651 395.319C224.396 395.18 224.14 395.041 223.881 394.902ZM236.667 513.713C246.487 506.704 255.326 482.122 255.21 470.156C255.428 454.901 249.386 439.744 239.728 428.091C236.418 424.264 227.464 408.949 231.992 405.101C233.095 405.825 233.463 407.237 233.456 408.336C234.944 419.395 243.167 426.73 248.809 435.687C251.911 440.268 253.529 445.532 255.196 450.74C259.854 464.407 258.485 479.768 252.087 492.726C248.578 498.815 244.081 514.616 236.075 515.194C236.215 514.681 236.114 513.997 236.667 513.713ZM209.775 218.892C209.467 219.711 208.349 220.061 208.031 218.871C205.404 205.209 193.126 197.4 191.792 182.694C191.75 182.698 191.704 182.702 191.662 182.705C190.804 173.551 192.38 163.556 187.47 155.343C184.578 150.251 181.461 145.286 178.477 140.243C174.145 130.325 178.841 118.891 184.77 110.671C186.682 108.08 189.099 105.814 190.717 103.065C192.45 100.123 193.515 96.7892 194.86 93.6233C194.853 92.6533 195.847 92.3415 196.464 91.7462C199.094 96.0187 192.149 105.551 189.106 108.833C180.683 118.162 175.514 132.685 183.551 143.794C186.013 148.143 188.899 152.255 191.287 156.639C196.215 167.94 191.379 181.29 197.602 192.42C201.51 201.098 209.467 209.093 209.775 218.892ZM186.339 6.42217C187.088 6.60428 188.118 6.54126 188.531 7.01404C190.724 9.79117 192.597 12.8205 195.325 15.1598C197.223 17.5833 201.177 19.1416 200.876 22.6332C201.013 35.6783 192.902 46.9515 193.084 60.0036C194.39 87.0115 223.121 86.9554 192.009 114.485C182.042 123.1 184.865 137.928 191.722 147.551C195.938 153.848 198.939 160.611 199.591 168.319C200.025 173.484 200.754 178.629 201.517 183.759C202.403 193.138 208.458 200.481 211.69 208.75C208.955 209.244 208.307 205.924 206.959 204.176C203.047 197.869 199.311 189.849 198.404 182.8C197.864 177.557 197.378 173.27 196.996 168.977C196.46 159.056 190.153 151.67 185.933 143.202C181.569 133.697 181.38 121.468 189.302 113.715C193.235 109.621 197.255 105.583 200.873 101.219C205.17 96.0327 204.417 92.6183 201.265 86.7418C195.98 77.9867 189.442 69.6622 190.528 58.7113C190.86 46.8429 197.476 36.75 198.127 25.0391C198.355 22.325 197.216 19.7405 194.733 18.3467C192.163 16.9038 190.843 14.5119 189.218 12.3126C187.831 10.4986 186.129 8.90863 186.339 6.42217ZM152.611 66.9096C150.919 71.6689 151.672 77.689 146.458 79.6747C140.319 81.7794 134.694 81.3381 129.76 76.6173C128.037 74.8838 123.232 72.8772 122.076 76.2391C119.972 85.362 116.133 92.6427 106.398 87.8764C103.911 86.2025 101.519 84.3849 99.0644 82.6654C96.9141 81.5238 98.1434 79.6537 100.227 80.4731C102.528 81.8775 104.808 83.3518 106.92 85.0223C110.642 87.9745 115.58 86.9414 117.342 82.5953C120.196 74.3795 120.718 67.8972 130.937 74.1379C136.05 79.3454 148.111 80.3611 149.245 71.3328C150.348 69.1895 148.618 64.5108 152.005 64.4337C159.429 63.9014 164.041 74.4671 172.033 63.1589C174.814 58.8234 172.457 53.3427 171.469 48.72C169.508 41.4357 171.715 35.2791 177.048 30.3902C182.921 25.5994 184.266 18.7214 187.285 12.4283C189.358 14.8027 182.588 28.9299 178.6 32.2568C173.676 36.9041 171.935 42.3918 174.026 49.0107C176.957 56.7748 176.152 69.2945 166.09 70.8529C160.462 71.6129 157.496 68.2089 152.611 66.9096ZM41.5082 88.8185C46.3165 87.0184 46.0574 81.2086 48.9921 77.5839C49.8431 76.1971 51.342 76.001 52.8479 76.4527C59.88 77.843 60.3177 85.39 63.34 90.7411C66.4008 95.567 75.8738 90.545 76.8369 100.992C77.4743 107.432 78.9521 113.743 84.8321 117.371C86.0963 118.25 93.6117 123.142 89.1886 123.492C66.8105 111.932 81.3335 97.374 68.1973 95.9697C63.3365 95.7596 61.1687 92.9053 59.5438 89.0671C57.9188 85.0537 57.1379 79.7411 51.9899 79.1563C51.5066 79.0547 50.6275 79.5241 50.3474 79.9828C47.952 83.6635 48.0255 88.745 43.4764 90.6991C42.5168 91.4486 41.6133 91.1088 40.6607 90.5695C40.9374 89.9636 41.0599 89.0041 41.5082 88.8185ZM168.02 311.212C167.414 311.171 166.626 311.363 166.23 311.053C161.874 307.615 157.037 305.229 151.469 304.915C141.614 303.919 134.341 309.776 124.402 305.719C122.311 305.114 120.956 303.622 120.802 301.335C120.987 298.88 119.443 295.658 121.975 294.108C123.495 295.57 122.721 297.471 122.84 299.302C122.535 304.629 132.992 304.966 136.729 304.034C144.104 302.284 151.847 300.688 159.132 303.598C161.996 304.847 167.925 307.766 168.02 311.212ZM175.101 287.781C162.728 280.354 154.533 268.491 146.629 256.733C142.343 249.568 135.027 246.67 127.764 243.496C126.818 242.96 125.901 242.126 125.333 241.204C122.969 237.363 120.003 234.314 115.517 232.928C115.549 233.036 115.584 233.107 115.608 233.149C115.65 233.194 115.64 233.198 115.608 233.149C115.493 233.012 114.939 232.508 113.136 231.762C92.4736 222.919 105.249 202.614 82.9935 198.601C60.1181 196.542 79.8241 183.041 58.8574 178.418C52.8478 177.004 44.5024 176.832 42.2961 169.842C41.3786 166.175 40.0758 162.372 39.6731 158.646C39.9848 157.406 40.5731 154.601 42.3487 155.585C43.753 162.015 42.3347 172.136 51.1073 173.771C54.1191 174.538 57.1624 175.221 60.2267 175.722C79.2218 179.833 68.2639 192.654 77.0365 194.465C87.7703 196.163 98.9488 199.084 100.675 211.485C102.601 225.178 114.067 228.165 123.967 234.828C126.587 238.515 128.685 241.602 133.329 242.977C149.578 248.239 153.703 267.48 166.143 277.678C169.319 279.932 171.757 283.801 175.577 284.782C176.071 284.932 176.905 285.069 176.957 285.336C177.234 286.643 176.919 288.492 175.101 287.781ZM181.51 288.043C177.959 284.85 174.397 281.665 170.983 278.327C164.02 270.704 163.961 258.415 153.458 253.869C148.3 250.885 141.94 248.357 139.895 242.233C137.233 235.088 129.606 233.191 123.011 231.45C116.095 229.801 113.608 223.231 110.618 217.501C111.157 216.258 111.984 215.757 112.94 216.825C115.451 220.811 116.956 225.602 121.555 227.72C128.968 230.918 139.187 231.727 142.01 240.671C144.857 247.889 153.168 249.683 158.89 253.955C163.071 256.723 165.166 261.11 166.77 265.628C169.662 274.364 176.435 280.479 182.988 286.515C184.679 287.878 183.247 289.643 181.51 288.043ZM147.162 195.445C138.701 178.828 118.679 173.754 110.59 156.853C107.294 152.115 104.682 145.765 98.6897 144.049C97.5235 143.605 95.6289 143.317 96.2803 141.556C96.9457 139.759 98.5076 141.041 99.5547 141.409C112.194 146.266 113.913 165.447 129.021 173.158C147.925 184.106 152.88 207.979 172.026 218.874C175.493 221.466 179.874 222.912 182.571 226.4C182.2 227.377 181.982 228.018 181.012 227.479C167.6 219.291 154.796 209.527 147.162 195.445ZM204.854 526.728C204.217 526.65 203.215 526.801 202.998 526.456C200.368 522.508 197.623 517.539 196.597 513.084C195.872 506.136 197.801 500.582 201.944 495.756C202.743 495.12 203.832 493.655 204.746 495.023C205.418 496.042 204.795 496.659 203.846 497.191C197.314 503.183 198.33 513.396 202.224 520.536C203.058 522.638 205.17 524.315 204.854 526.728ZM208.283 501.187C207.901 501.791 207.625 502.679 207.26 502.717C202.907 504.558 205.065 516.47 206.959 519.89C207.681 521.085 208.059 522.134 207.246 523.408C202.035 520.568 200.992 506.883 204.189 502.011C205.219 500.229 207.026 498.449 208.283 501.187ZM195.546 526.407C193.158 522.762 191.928 518.723 191.442 514.139C188.92 502.011 194.611 492.896 203.264 484.973C203.884 484.22 204.886 484.196 205.579 484.808C205.716 484.932 205.516 485.665 205.268 485.934C198.715 492.097 193.105 499.362 193.567 508.93C193.693 516.805 196.576 523.509 200.883 529.811C202.109 532.186 204.945 534.098 204.784 536.91C201.205 537.371 197.728 529.008 195.546 526.407ZM197.724 630.556C192.149 634.956 182.14 612.638 181.933 608.101C180.473 593.004 191.081 581.045 199.871 570.089C200.701 568.827 201.524 567.809 203.187 567.988C203.096 568.617 203.226 569.428 202.883 569.846C187.526 587.009 175.556 603.618 192.272 624.953C193.732 626.56 194.576 629.421 197.164 629.333C198.131 629.195 198.267 630.127 197.724 630.556ZM197.311 622.885C192.503 618.938 190.268 612.412 189.162 606.29C188.416 603.916 188.731 591.309 192.821 593.077C193.014 593.171 193.098 594.012 192.909 594.292C188.101 602.745 192.807 614.332 198.369 621.335C199.185 622.329 198.155 623.119 197.311 622.885ZM199.917 591.203C196.092 593.46 197.35 597.172 197.472 600.362C197.497 602.74 199.871 604.867 199.444 607.413C196.288 606.906 196.4 602.885 194.975 600.567C194.597 597.727 195.938 587.685 200.106 589.72C200.333 589.943 200.204 591.034 199.917 591.203Z" fill="#389D5A"/>
<g id="l-kelp">
<path d="M235.244 686.824C229.612 666.033 220.745 661.295 204.347 649.559C186.3 635.896 193.769 608.042 183.416 589.604C183.133 589.734 181.314 581.599 180.405 577.696C179.618 574.315 179.211 570.701 177.691 567.666C174.583 561.46 171.027 555.455 167.312 549.587C150.208 526.126 170.194 498.917 151.399 476.489C123.89 440.339 155.447 422.089 153.64 385.812C152.081 394.145 146.714 400.027 141.44 406.204C139.641 408.617 138.211 411.35 136.192 413.549C127.803 422.065 131.331 432.233 130.457 442.682C129.817 446.324 129.315 449.855 127.344 453.013C120.699 463.431 123.27 476.465 129.705 486.228C140.698 501.585 127.046 517.604 134.721 533.361C139.105 544.111 148.973 550.32 157.754 557.179C163.527 561.882 168.214 567.601 170.666 574.721C175.408 588.133 185.134 600.956 183.154 615.759C182.51 620.461 182.386 625.236 181.711 629.933C179.268 650.784 190.238 657.146 206.966 665.38C218.081 671.462 228.298 680.241 232.438 692.412C234.112 696.168 236.387 699.393 239.857 701.232C240.878 700.761 241.653 700.404 242.822 699.866C239.994 695.657 236.657 691.855 235.244 686.824ZM150.923 483.701C151.401 487.11 151.92 490.511 152.309 493.929C152.361 494.391 151.755 494.926 151.454 495.427C149.359 488.02 147.784 480.643 142.386 474.662C140.974 472.474 138.63 469.964 140.179 467.247C140.722 467.689 141.42 468.031 141.782 468.589C144.868 473.535 150.778 483.713 150.923 483.701ZM139.122 496.513C133.526 493.378 130.609 486.815 129.406 480.633C126.625 469.118 129.74 457.79 133.033 446.745C134.469 441.783 134.716 436.79 134.23 431.707C134.027 430.063 133.591 428.473 135.212 427.389C135.633 427.828 136.43 428.279 136.421 428.711C136.312 434.656 137.155 440.56 135.348 446.529C132.939 454.474 130.227 462.474 130.6 470.973C130.536 484.784 134.544 485.419 139.584 496.049C139.429 496.203 139.276 496.359 139.122 496.513ZM140.323 491.894C134.47 487.821 127.965 470.508 133.042 464.623C133.311 465.043 133.856 465.496 133.808 465.875C132.102 475.625 137.453 483.089 140.998 491.51C140.774 491.64 140.548 491.767 140.323 491.894ZM136.756 478.571C136.642 476.584 132.873 467.787 137.274 467.674C137.501 467.677 137.947 468.405 137.9 468.75C137.097 475.982 140.836 482.308 144.812 487.973C145.774 488.774 145.704 489.832 145.7 490.974C140.752 489.102 139.021 483.731 136.756 478.571Z" fill="#B1D659"/>
<path d="M143.744 451.141C145.544 464.137 155.467 473.74 160.305 485.548C164.526 495.579 164.96 506.132 163.379 516.817C161.623 525.072 161.326 532.514 166.08 539.86C172.6 551.791 180.486 563.194 182.845 576.821C184.138 582.18 184.088 587.944 188.395 592.422C188.18 589.205 188.138 585.946 188.653 582.787C188.988 580.032 190.882 577.469 190.733 574.678C187.118 558.248 197.874 544.04 187.073 528.874C182.532 520.813 172.946 514.661 173.901 504.38C174.486 493.764 179.597 483.975 181.019 473.598C184.588 440.756 151.346 437.671 155.854 414.087C157.553 406.707 158.025 399.216 156.811 391.736C156.371 392.094 156.285 392.432 156.257 392.778C155.68 399.681 153.993 406.333 151.883 412.909C148.31 425.321 142.709 438.011 143.744 451.141ZM172.925 529.601C172.734 529.171 173.146 528.48 173.278 527.91C176.68 529.053 179.735 549.622 179.36 553.584C179.011 553.603 178.661 553.623 178.311 553.643C176.462 545.627 176.127 537.271 172.925 529.601ZM172.223 504.079C172.099 527.323 193.581 523.085 187.386 555.973C185.955 562.196 187.375 568.053 188.611 574.152C188.375 574.235 188.14 574.32 187.904 574.403C182.969 566.12 185.689 556.029 186.189 547.007C187.414 538.715 183.179 531.239 177.554 525.595C185.167 536.632 185.778 548.507 182.278 560.907C182.058 560.931 181.839 560.956 181.619 560.98C181.28 558.937 180.447 556.74 181.857 554.972C183.169 549.493 182.736 544.07 181.162 538.713C180.052 534.935 178.412 531.411 175.977 528.274C174.978 527.196 173.499 523.478 176.173 524.164C170.958 515.384 167.948 505.425 171.623 495.284C171.799 494.682 172.753 494.304 173.346 493.823C173.883 497.281 172.286 500.645 172.223 504.079ZM170.241 453.561C169.394 450.701 162.641 443.925 164.605 441.556C165.071 441.42 165.896 441.603 166.195 441.96C173.822 450.214 176.385 462.002 174.678 472.856C174.418 472.899 174.156 472.939 173.895 472.978C173.241 466.364 173.425 459.642 170.241 453.561Z" fill="#B1D659"/>
</g>
<path id="l-sprig" d="M409.336 600.758C409.674 604.494 418.418 603.593 421.167 603.262C427.071 602.618 432.066 599.842 436.952 596.524C433.103 593.734 428.383 592.187 423.697 592.797C418.052 593.888 412.233 595.716 407.977 599.795C406.915 600.449 405.4 599.881 404.223 600.151C401.15 600.676 398.08 601.149 395.04 601.94C389.028 603.578 383.671 606.617 378.315 609.667C377.922 609.884 377.383 609.907 377.069 610.192C375.059 612.008 372.512 612.345 370.016 612.827C366.418 611.59 371.259 608.051 371.263 605.801C375.251 600.225 378.94 594.426 383.243 589.085C384.213 588.127 384.761 586.444 386.205 586.192C386.299 586.903 385.938 587.472 385.526 588.013C383.573 590.591 381.598 593.151 379.654 595.734C377.523 598.653 375.246 601.481 373.234 604.478C382.326 595.644 388.334 584.165 395.985 574.127C393.913 572.789 394.785 575.383 392.491 573.525C390.083 581.401 382.716 586.069 378.452 592.862C375.607 597.56 372.495 602.09 369.293 606.558C368.336 607.905 367.303 609.199 366.279 610.496C365.792 611.116 365.105 610.894 364.52 610.704C364.366 610.654 364.225 610.068 364.321 609.821C368.646 597.717 376.954 585.934 375.621 572.583C374.798 572.481 374.506 572.859 374.271 573.537C372.815 577.77 371.341 581.999 369.799 586.202C366.681 593.806 363.325 601.384 359.918 608.851C357.224 613.62 353.489 617.666 349.65 621.536C345.16 625.987 339.515 629.077 334.641 633.001C332.184 635.235 329.115 636.471 326.481 638.393C325.885 638.83 325.296 638.444 325.283 637.707C324.981 630.435 325.737 623.192 326.215 615.938C326.438 612.917 326.903 609.921 328.251 607.165C331.304 600.43 335.298 594.257 339.716 588.35C345.862 578.83 351.377 568.892 358.448 559.992C365.49 552.177 370.997 543.229 377.605 535.07C376.893 534.632 376.338 534.291 375.694 533.895C365.261 544.85 357.789 558.081 349.103 570.359C347.169 573.04 344.444 575.026 342.48 577.635C340.946 579.889 338.464 581.293 337.09 583.707C336.335 584.742 335.613 586.148 334.282 586.493C333.599 585.156 334.76 583.761 335.296 582.56C339.721 574.864 345.719 568.219 350.53 560.783C354.859 553.609 358.277 545.864 361.657 538.199C362.12 536.632 363.557 535.104 363.258 533.461C362.374 533.535 362.115 534.252 361.817 534.965C360.588 538.462 358.812 541.706 356.983 544.921C354.741 548.955 352.408 552.914 349.381 556.415C346.454 560.367 344.019 564.657 341.274 568.72C339.091 571.243 337.049 573.992 334.568 576.217C333.741 576.881 333.004 577.546 332.488 578.459C330.656 581.511 329.16 584.733 327.672 587.963C326.88 589.392 326.599 591.23 324.991 591.984C323.94 585.199 326.746 578.327 328.294 571.761C330.602 562.91 334.773 554.727 339.396 546.883C343.438 540.103 348.133 533.749 352.819 527.408C353.485 526.809 354.993 523.929 355.767 525.075C363.196 518.211 370.859 511.864 379.709 506.894C382.923 504.991 386.048 502.937 389.221 500.966C391.071 500.094 390.193 498.762 391.305 498.398C392.347 498.544 392.117 500.137 393.493 499.914C399.136 499.892 404.587 498.224 409.467 495.415C414.913 492.544 420.49 488.83 423.041 482.983C423.481 481.928 423.358 481.59 422.186 481.614C419.937 481.662 417.672 481.722 415.452 482.05C405.824 483.501 396.39 487.352 389.689 494.646C388.938 495.3 389.986 496.674 389.054 497.442C386.33 499.71 383.508 501.911 380.806 504.196C376.468 507.07 371.457 508.881 367.324 512.052C364.828 513.92 362.31 515.757 359.857 517.679C358.312 518.486 356.613 521.966 354.75 520.673C354.184 519.825 355.165 519.074 355.695 518.434C356.725 516.652 357.746 514.864 358.753 513.069C360.962 508.67 363.891 504.624 366.02 500.225C371.638 493.49 377.369 486.868 382.722 479.907C381.883 479.243 380.897 476.362 380.16 478.599C380.085 478.756 380.003 478.912 379.899 479.05C377.746 481.887 375.727 484.838 373.408 487.533C366.939 494.861 362.294 503.488 356.576 511.374C350.254 518.176 346.2 526.687 339.835 533.451C339.442 533.866 339.039 534.697 338.408 534.216C337.395 533.188 339.879 531.46 340.273 530.466C343.213 523.927 346.727 517.684 350.405 511.53C353.249 506.85 356.987 502.757 359.388 497.78C361.282 493.599 364.007 489.837 365.163 485.348C365.307 484.099 366.138 482.935 366.609 481.713C366.824 480.549 365.25 480.489 364.484 479.96C360.769 494.826 349.197 505.995 343.455 519.979C341.743 523.782 340.26 527.94 338.003 531.368C337.897 532.648 337.033 532.812 336.196 533.141C335.533 533.401 335.234 533.17 335.395 532.467C335.523 531.904 335.548 531.434 335.131 530.978C334.562 529.144 334.823 526.982 334.78 525.056C335.612 518.391 337.564 511.906 339.553 505.505C341.576 498.607 346.115 492.699 347.898 485.755C348.379 483.312 348.999 480.896 349.518 478.459C349.919 477 349.363 476.702 347.978 476.611C347.233 475.883 347.33 474.447 348.604 474.999C349.281 475.635 349.762 475.263 350.24 474.781C356.861 468.471 361.152 460.014 364.542 451.574C366.134 447.93 367.5 443.871 365.751 439.952C362.802 444.349 359.692 448.399 355.922 452.111C351.904 456.836 349.402 462.578 346.508 468.007C345.112 470.419 346.692 472.942 347.013 475.366C346.912 478.341 346.078 481.194 345.261 484.03C343.795 489.35 341.728 494.464 339.441 499.477C337.498 502.721 336.312 506.21 335.603 509.915C333.226 518.077 334.803 526.956 331.437 534.847C326.758 546.288 321.812 557.65 318.225 569.499C315.606 577.487 311.997 585.211 310.619 593.601C306.619 605.742 308.439 618.526 307.931 631.04C307.495 634.391 308.084 637.716 308.157 641.079C308.168 641.676 307.884 642.037 307.179 641.97C303.82 642.248 302.97 631.543 302.13 628.956C301.706 626.263 300.427 623.904 299.205 621.531C296.375 613.042 294.894 604.127 293.767 595.268C292.315 581.419 295.923 567.705 299.352 554.408C301.299 543.706 305.552 533.467 311.79 524.542C314.293 520.986 316.563 517.275 318.223 513.254C317.608 512.761 317.013 512.283 316.338 511.74C314.54 514.443 313.522 517.816 311.064 519.97C310.043 520.481 309.479 520.525 309.39 519.12C310.003 515.883 311.159 512.679 311.765 509.432C310.722 509.502 309.063 508.486 308.896 509.894C308.572 514.289 306.745 518.359 305.066 522.351C305.94 522.826 306.988 523.002 307.191 523.903C306.867 527.461 304.108 530.039 302.282 532.932C300.53 535.357 297.864 536.674 295.456 538.29C294.865 538.686 294.278 538.939 294.647 539.813C296.864 545.692 292.457 557.393 290.788 563.609C288.41 569.535 287.801 575.793 287.609 582.105C287.102 586.757 287.614 591.32 288.574 595.856C290.34 602.446 290.785 609.317 293.02 615.78C293.285 616.879 294.195 618.069 293.396 619.114C290.877 615.782 290.289 610.808 289.412 606.721C288.365 598.973 285.299 591.578 286.12 583.654C286.675 578.821 286.193 573.887 287.671 569.17C289.559 562.661 296.455 544.893 292.822 539.4C292.361 539.609 291.954 539.794 291.515 539.994C293.293 542.367 292.363 545.21 292.232 547.875C292.143 554.88 288.422 561.082 287.451 567.942C286.838 571.153 286.503 574.415 285.954 577.64C285.706 579.087 286.058 580.687 284.975 581.954C284.897 582.047 284.909 582.237 284.915 582.38C285.07 585.421 285.025 588.49 285.438 591.497C286.046 595.911 286.984 600.278 287.756 604.671C287.798 604.923 287.591 605.222 287.497 605.498C286.226 604.283 286.345 601.527 285.784 599.824C284.669 595.138 284.342 590.4 283.703 585.663C281.605 592.808 274.562 588.136 271.631 584.495C265.051 578.007 267.433 570.078 268.762 561.97C271.2 553.409 274.666 544.021 283.265 539.94C282.481 539.693 281.809 539.25 281.504 539.429C278.025 540.906 276.14 546.015 273.151 546.551C271.553 544.733 274.925 539.183 275.616 537.016C273.327 536.389 273.304 538.675 272.775 540.159C271.439 543.647 270.137 552.23 266.769 553.78C266.31 549.758 266.355 545.468 266.768 541.415C268.46 534.687 270.048 527.686 268.3 520.771C267.595 519.541 267.497 512.472 265.286 514.629C262.783 517.862 260.37 521.481 260.836 525.751C261.303 530.216 260.984 535.031 263.33 539.031C264.255 540.312 264.767 541.386 264.959 542.919C265.793 544.353 265.356 545.949 265.479 547.502C265.837 552.862 264.966 558.174 264.402 563.5C264.084 564.938 263.337 564.563 262.523 563.818C261.73 561.544 261.364 559.01 260.501 556.732C259.924 555.115 259.016 553.617 258.271 552.1C257.449 552.308 256.785 552.475 256.024 552.666C259.896 557.005 261.022 562.773 261.883 568.329C262.087 572.814 261.469 575.81 264.333 579.824C264.033 576.135 263.548 572.47 263.173 568.789C263.02 568.032 262.706 567.37 263.411 566.776C264.45 567.183 264.218 568.448 264.478 569.349C265.682 573.916 264.493 579.066 267.837 582.861C271.608 587.602 275.241 592.46 279.148 597.094C282.891 601.813 285.443 607.293 288.097 612.664C288.89 614.367 289.583 616.115 290.371 617.82C290.737 618.615 290.7 618.781 289.761 619.048C285.431 612.123 282.956 604.018 277.806 597.591C277.743 597.637 277.684 597.684 277.622 597.729C282.281 604.4 285.225 612.102 288.545 619.5C290.549 624.729 292.368 630.044 295.199 634.91C297.129 637.938 299.177 640.899 300.708 644.17C302.476 647.539 304.538 650.789 304.953 654.712C305.886 658.912 305.504 663.236 306.223 667.45C306.328 668.794 306.296 670.15 306.465 671.482C306.556 672.189 306.877 672.841 306.516 673.575C306.43 673.748 306.669 674.081 306.815 674.495C305.639 679.175 305.015 684.064 305.045 688.91C305.01 689.579 305.23 689.896 305.797 690.189C308.798 691.483 312.175 692.921 315.471 692.387C316.246 692.207 316.395 691.589 316.13 690.83C316.003 690.465 315.975 689.919 316.163 689.62C316.897 688.329 316.437 686.873 316.699 685.483C316.871 679.205 318.485 673.221 319.805 667.118C321.493 658.447 325.604 650.511 330.308 643.114C335.52 634.966 345.095 631.876 352.529 626.259C358.887 622.17 365.127 617.843 372.088 614.828C375.737 613.465 379.233 611.736 382.868 610.35C390.952 606.552 399.184 603.463 408.068 602.041C407.948 601.402 408.381 599.537 409.336 600.758ZM422.878 596.378C422.569 596.77 422.351 597.582 421.717 597.377C421.293 596.634 422.479 595.806 421.543 594.779C421.568 592.746 423.952 594.917 422.878 596.378ZM418.769 595.373C420.211 595.324 419.799 596.712 420.003 597.676C419.946 597.69 419.888 597.704 419.831 597.718C419.527 598.191 419.306 598.715 418.693 598.831C418.449 597.828 419.253 596.94 418.546 595.956C418.478 595.834 418.717 595.365 418.769 595.373ZM413.399 597.463C414.592 596.346 415.787 598.106 415.231 599.471C415.183 599.511 415.017 599.645 414.85 599.78C414.457 599.348 414.233 598.598 413.788 598.284C413.367 598.069 413.098 597.825 413.399 597.463ZM411.212 600.863C417.643 602.912 423.568 599.939 429.515 598.254C428.205 601.058 414.267 603.904 411.421 602.196C410.879 602.082 410.583 601.749 410.362 601.262C410.648 601.12 410.989 600.796 411.212 600.863ZM417.272 486.049C417.903 485.383 419.303 484.08 419.622 485.737C418.889 486.1 418.206 486.438 417.523 486.776C417.429 486.525 417.19 486.132 417.272 486.049ZM413.658 491.193C413.357 491.431 412.962 491.553 412.6 491.717C412.534 491.44 412.465 491.161 412.352 490.706C413.124 490.425 413.687 490.247 413.658 491.193ZM413.72 486.601C413.614 486.685 413.073 487.44 412.734 487.345C412.303 486.819 411.756 486.323 411.528 485.711C411.787 484.372 414.821 484.266 413.72 486.601ZM410.553 489.726C410.756 489.743 410.93 490.143 411.115 490.366C410.475 491.154 409.401 490.889 408.515 490.872C408.272 490.843 408.069 490.464 407.762 490.159C408.719 489.548 409.529 489.738 410.553 489.726ZM405.223 487.993C404.843 489.187 403.877 490.366 402.641 490.696C402.598 490.381 402.555 490.066 402.505 489.703C403.39 488.876 403.84 487.555 405.223 487.993ZM399.749 492.605C398.752 494.003 398.438 491.89 398.267 491.029C399.606 489.904 399.773 491.619 399.749 492.605ZM394.146 497.177C396.81 497.367 399.321 496.613 401.861 496.018C402.686 496.035 406.023 494.513 405.922 495.814C401.98 497.758 397.311 497.993 393.01 498.54C392.75 497.637 393.387 497.221 394.146 497.177ZM365.3 446.409C365.679 448.007 364.2 449.628 363.777 451.181C363.842 451.211 363.905 451.24 363.97 451.271C360.584 457.199 355.812 469.939 350.127 473.104C349.959 472.581 349.803 472.049 350.35 471.696C352.67 469.857 354.311 467.456 355.679 464.9C358.669 459.099 361.831 453.359 364.257 447.292C364.351 446.715 364.812 446.57 365.3 446.409ZM361.983 448.407C361.355 449.237 360.593 449.896 359.998 450.767C359.376 448.527 362.475 446.109 361.983 448.407ZM353.09 464.006C355.015 461.694 356.374 459.045 357.658 456.353C358.242 455.321 358.172 453.796 359.606 453.592C359.681 454.076 359.858 454.55 359.543 454.989C359.615 455.032 359.684 455.074 359.756 455.117C358.371 456.791 354.783 464.92 353.001 464.551C353.027 464.366 352.987 464.127 353.09 464.006ZM353.799 456.761C354.28 456.605 354.55 457.247 354.523 457.607C354.067 458.309 353.74 459.305 352.881 459.128C351.857 458.251 353.259 457.439 353.799 456.761ZM352.663 460.666C353.259 461.637 352.45 461.735 351.795 462.193C351.684 461.968 351.571 461.743 351.366 461.331C351.879 461.068 352.271 460.867 352.663 460.666ZM351.399 465.993C351.187 466.66 350.825 466.76 350.411 467.22C348.94 465.237 352.454 462.694 351.399 465.993ZM348.255 470.73C348.094 470.281 347.934 469.832 347.696 469.17C348.864 468.708 349.634 469.234 349.138 470.299C349.04 470.526 348.56 470.591 348.255 470.73ZM266.626 538.736C266.47 538.73 266.314 538.724 266.159 538.718C265.765 535.314 266.969 531.871 267.08 528.445C267.323 525.717 266.39 523.124 265.847 520.493C265.6 519.638 265.488 518.896 266.328 518.336C267.589 519.613 267.095 521.733 267.76 523.323C268.485 525.75 268.399 528.194 268.129 530.642C267.67 533.328 267.672 536.206 266.626 538.736ZM350.959 523.866C351.503 522.772 352.362 523.603 351.81 524.524C345.562 532.838 338.267 540.465 333.438 549.752C333.473 549.772 333.511 549.794 333.545 549.814C332.078 551.755 330.561 558.841 329.01 559.02C331.975 545.317 342.736 534.803 350.959 523.866ZM324.245 559.363C326.755 552.871 330.059 546.699 332.888 540.338C333.55 539.217 333.557 537.592 334.839 536.98C335.131 538.524 333.909 539.888 333.478 541.332C333.508 541.346 333.541 541.36 333.571 541.374C329.852 549.681 325.342 557.78 323.017 566.621C320.981 577.541 318.381 588.618 319.1 599.791C319.114 600.313 319.172 601.132 318.431 601.052C317.702 600.973 318.142 600.216 318.127 599.748C317.808 586.121 320.001 572.314 324.245 559.363ZM310.351 632.393C310.135 629.888 309.766 627.379 309.804 624.877C309.95 619.408 310.737 613.962 310.294 608.481C310.157 602.369 311.259 596.299 312.125 590.266C312.219 590.289 312.31 590.311 312.402 590.334C313.109 589.091 313.154 587.251 314.568 586.608C315.43 587.437 314.73 588.378 314.421 589.281C311.868 599.022 312.047 609.183 312.119 619.172C311.62 628.341 313.715 638.213 309.781 646.824C309.036 647.619 308.975 645.999 309.106 645.544C310.089 641.216 310.919 636.844 310.351 632.393ZM306.719 688.16C306.554 687.203 306.401 686.212 306.471 685.251C306.691 680.056 307.814 674.866 307.296 669.667C306.719 661.227 306.626 652.441 302.038 645.001C300.111 641.663 298.262 638.279 296.331 634.944C296.129 634.598 291.297 626.785 292.678 623.49C292.945 623.769 293.363 624.006 293.45 624.333C294.135 626.961 295.255 629.402 296.528 631.785C300.102 639.645 305.971 646.641 307.343 655.298C308.118 661.178 308.561 667.205 308.714 673.143C308.603 675.632 308.432 678.119 308.222 680.602C307.999 682.894 307.335 685.123 308.084 687.388C308.296 688.283 307.088 689.42 306.719 688.16ZM324.402 639.97C321.439 638.059 323.488 626.539 323.264 622.816C323.298 614.681 324.127 606.325 328.99 599.522C331.156 594.737 334.1 590.422 337.799 586.698C338.643 585.908 339.069 584.519 340.338 584.369C340.388 584.604 340.439 584.839 340.499 585.114C339.816 585.929 339.255 586.81 338.496 587.458C334.551 591.149 332.354 596.137 329.722 600.75C326.954 604.472 326.101 608.881 325.266 613.333C324.24 618.074 325.051 622.941 324.741 627.736C324.649 629.552 324.119 631.354 324.12 633.163C323.9 635.409 325.14 637.828 324.402 639.97ZM360.707 611.603C362.72 609.013 364.022 606.054 365.182 603.024C365.902 601.861 365.666 598.979 367.439 599.047C366.361 602.044 363.669 611.369 360.702 612.235C360.699 612.021 360.604 611.735 360.707 611.603ZM359.291 620.424C354.052 623.571 348.501 626.223 343.28 629.381C337.848 633.749 332.114 637.796 326.848 642.384C324.823 645.044 324.601 648.769 323.091 651.733C320.54 656.618 320.068 662.14 318.571 667.376C317.049 672.969 315.858 678.613 315.301 684.39C314.969 685.63 315.462 687.227 314.598 688.226C313.714 687.828 313.891 687.065 313.993 686.274C314.537 681.458 315.183 676.673 316.524 672.006C318.09 665.91 318.954 659.539 321.245 653.674C321.27 653.682 321.292 653.688 321.316 653.695C323.46 648.53 324.28 642.222 329.219 638.855C333.979 635.61 338.454 631.938 343.071 628.524C349.54 624.682 356.474 621.255 362.645 617.175C362.639 618.522 360.287 619.641 359.291 620.424ZM398.029 603.214C394.701 604.044 391.6 605.547 388.435 606.815C388.366 606.722 388.3 606.63 388.234 606.538C391.289 604.147 400.464 600.538 404.118 601.515C403.655 602.768 399.479 602.577 398.029 603.214Z" fill="#8BAAC6"/>
</g>
</svg>
