<svg width="249" height="1111" viewBox="0 0 249 1111" fill="none" xmlns="http://www.w3.org/2000/svg">
<g id="right-side-mid-kelp">
<g id="right-mid-strand-1">
<g id="Union">
<path fill-rule="evenodd" clip-rule="evenodd" d="M172.985 533.641C182.932 567.45 217.677 574.075 204.039 615.989C193.994 642.546 221.005 661.08 212.84 688.041C211.313 694.605 209.976 701.243 209.115 707.922C208.693 711.189 209.475 714.63 209.836 717.979C210.252 721.845 211.186 729.876 210.887 729.85C207.3 750.051 223.05 773.179 210.888 791.467C199.62 807.462 193.012 814.639 194.503 835.485C194.817 840.546 192.977 845.096 191.732 849.856C192.975 849.976 193.799 850.055 194.885 850.159C197.476 847.364 198.529 843.683 198.86 839.707C198.761 827.234 205.312 815.925 213.549 806.798C226.24 793.904 234.253 784.568 225.347 766.248C223.227 762.162 221.585 757.828 219.492 753.726C212.944 740.799 217.751 725.941 217.806 712.138C217.775 704.831 220.24 698.093 224.024 691.939C229.874 682.847 236.928 674.004 237.506 662.754C239.498 645.865 221.868 635.557 227.026 617.973C229.799 606.972 227.986 594.208 218.566 586.79C215.751 584.528 214.161 581.454 212.41 578.322C208.267 569.03 208.248 558.586 197.839 553.469C195.286 552.1 193.102 550.054 190.682 548.419C183.876 544.447 177.078 540.775 172.985 533.641ZM211.361 603.934C213.65 605.928 212.304 608.978 211.711 611.433C208.679 618.638 209.595 625.9 210.046 633.356C209.609 632.993 208.883 632.696 208.784 632.257C208.046 629.001 207.434 625.719 206.781 622.444C206.922 622.389 209.077 611.19 210.321 605.676C210.475 605.05 211.005 604.514 211.361 603.934ZM203.163 565.833C204.995 566.308 205.104 567.904 205.444 569.476C206.625 574.288 208.448 578.782 211.35 582.867C217.899 591.933 224.376 601.314 225.511 612.752C226.386 618.8 225.813 625.745 221.69 630.406C221.499 630.315 221.309 630.22 221.118 630.129C222.335 618.779 225.803 616.915 221.327 604.284C218.95 596.379 213.907 589.918 209.16 583.41C205.595 578.52 204.48 572.843 202.478 567.431C202.332 567.038 202.918 566.37 203.163 565.833ZM214.159 603.397C218.227 602.093 217.587 611.357 218.119 613.213C217.694 618.665 217.826 624.139 213.891 627.437C213.522 626.391 213.121 625.444 213.745 624.403C215.576 617.942 216.978 610.951 213.929 604.583C213.776 604.282 213.952 603.472 214.159 603.397ZM217.06 599.248C223.592 603.015 223.171 620.955 219.112 626.559C218.866 626.515 218.618 626.471 218.371 626.423C218.925 617.575 221.439 609.026 216.758 600.64C216.594 600.308 216.947 599.718 217.06 599.248Z" fill="#2D7B47"/>
<path fill-rule="evenodd" clip-rule="evenodd" d="M207.592 737.346C207.463 737.49 207.223 737.637 207.221 737.786C207.163 743.344 205.132 748.226 201.844 752.562C192.322 765.028 189.198 780.809 191.458 796.065C191.155 804.158 192.605 812.582 189.5 820.271C186.708 827.267 185.921 833.967 189.444 841.187C190.273 829.138 190.933 817.77 196.472 806.962C201.55 796.944 206.061 786.637 210.638 776.381C212.861 771.316 212.469 766.154 211.237 760.889C209.646 753.145 207.313 745.407 208.084 737.424C207.92 737.398 207.756 737.372 207.592 737.346ZM206.574 758.594C206.96 758.387 207.836 758.541 208.139 758.87C208.916 759.797 208.71 761.216 208.596 762.356C210.263 773.701 207.025 785.034 200.051 794.034C199.728 793.915 199.405 793.796 199.082 793.677C199.216 792.921 199.128 792.017 199.518 791.431C204.273 784.275 206.465 776.349 206.587 767.836C206.968 765.151 205.234 760.786 206.574 758.594ZM203.259 764.506C204.404 764.272 204.649 765.19 204.759 766.18C205.652 774.757 203.532 783.282 197.877 789.87C197.605 789.747 197.334 789.624 197.062 789.501C197.258 786.729 199.029 784.555 200.029 782.063C202.065 776.979 202.627 771.654 202.445 766.213C202.425 765.626 202.874 764.584 203.259 764.506ZM199.08 767.205C199.452 768.001 200.146 768.753 200.337 769.584C198.983 775.048 199.219 783.683 194.328 787.157C193.747 785.051 195.696 783.489 196.03 781.556C196.917 777.471 198.624 767.765 199.08 767.205Z" fill="#2D7B47"/>
<path fill-rule="evenodd" clip-rule="evenodd" d="M171.973 540.085C173.252 547.325 176.081 554.036 179.997 560.253C191.67 580.416 162.204 593.874 175.978 622.818C180.599 631.869 188.412 639.202 192.343 648.74C196.506 657.853 189.692 666.553 188.11 675.39C183.067 692.738 197.464 702.314 199.407 718.521C200.164 721.124 202.718 722.867 203.906 725.283C205.388 728.013 206.392 731.011 207.223 734.027C209.737 728.547 207.848 723.284 207.318 717.961C205.121 704.724 208.698 691.756 210.855 678.74C212.861 670.491 210.209 663.768 205.96 656.768C201.094 647.485 198.117 637.679 198.776 627.14C199.431 614.776 205.45 602.805 202.942 590.324C199.69 577.965 190.501 568.132 183.258 557.904C179.221 552.555 175.55 547.001 172.813 540.862C172.677 540.554 172.489 540.272 171.973 540.085ZM189.475 638.891C190.172 639.142 191.167 639.184 191.521 639.678C198.131 647.793 198.558 657.878 196.59 667.59C198.819 666.106 198.654 669.985 198.084 671.292C196.856 674.945 196.481 678.698 196.672 682.513C196.943 687.924 198.281 693.03 201.236 697.63C203.093 698.798 203.032 701.077 203.375 703.057C203.166 703.105 202.957 703.153 202.749 703.201C195.577 692.961 192.338 681.887 195.782 669.342C192.435 676.312 190.945 684.515 194.72 691.719C198.063 699.824 203.782 708.198 201.91 717.363C201.668 717.363 201.425 717.36 201.183 717.36C200.365 711.377 199.792 705.558 196.491 700.314C180.298 672.169 201.331 669.18 193.784 647.927C192.627 644.802 190.089 642.23 189.475 638.891ZM200.44 670.095C200.743 670.575 201.342 671.077 201.304 671.532C200.824 679.582 203.19 687.344 204.06 695.277C203.733 695.371 203.405 695.466 203.079 695.559C201.468 692.049 197.689 672.231 200.44 670.095ZM180.765 588.216C183.322 589.758 179.304 598.125 179.443 601.015C178.471 607.604 180.788 613.704 182.306 619.971C182.054 620.019 181.802 620.067 181.55 620.111C176.515 610.714 175.092 599.094 179.439 589.094C179.599 588.672 180.295 588.24 180.765 588.216Z" fill="#2D7B47"/>
</g>
<g id="path 2">
<path fill-rule="evenodd" clip-rule="evenodd" d="M98.3933 629.99C94.9195 653.327 107.787 672.947 120.864 690.731C125.962 698.613 128.773 707.788 130.691 716.895C131.159 720.096 130.952 727.865 130.578 727.864C128.663 744.564 137.953 760.203 149.104 771.781C157.408 780.418 162.119 790.657 163.344 802.62C163.982 808.841 165.098 815.023 166.252 821.175C170.418 833.114 179.884 842.127 186.331 852.814C186.465 852.859 186.599 852.905 186.732 852.95C186.693 852.229 186.85 851.424 186.585 850.799C184.279 845.355 181.755 839.998 179.581 834.503C174.047 821.918 182.088 807.856 178.239 794.845C176.664 790.53 173.976 786.56 171.325 782.811C166.478 776.775 160.654 770.643 161.005 762.455C161.465 743.487 167.528 738.186 154.925 720.43C149.585 713.135 141.854 708.417 135.199 702.5C128.207 696.086 128.268 685.878 126.474 677.214C125.543 667.25 119.465 659.269 113.836 651.379C107.743 644.689 100.449 639.779 98.3933 629.99ZM132.52 706.91C138.516 714.479 135.648 725.221 136.4 734.176C137.972 746.017 144.165 756.921 152.391 765.445C157.713 770.758 162.389 776.637 164.777 783.893C165.983 787.342 167.399 794.357 164.902 797.138C164.282 796.456 163.585 795.841 163.925 794.831C165.136 782.882 157.371 773.665 149.58 765.723C143.955 759.304 138.953 752.364 136.219 744.217C134.568 740.288 133.177 736.251 133.764 731.838C134.031 729.878 133.825 724.505 133.835 723.792C133.904 719.229 133.805 714.677 132.207 710.29C131.866 709.354 131.983 708.252 131.89 707.224C132.099 707.118 132.31 707.012 132.52 706.91ZM139.902 735.144C140.258 732.93 142.516 732.415 142.463 735.096C143.52 747.157 150.075 757.734 157.768 766.746C157.579 766.958 157.39 767.17 157.2 767.382C148.388 761.753 140.72 745.452 139.902 735.144ZM145.752 737.158C146.283 737.665 147.2 738.117 147.282 738.686C147.872 742.787 149.102 746.661 151.159 750.237C153.097 753.607 155.211 756.875 157.181 760.227C157.452 760.689 157.342 761.376 157.409 761.958C156.379 761.734 155.346 761.615 154.944 760.48C150.838 753.225 145.362 747.231 144.864 738.314C144.991 738.149 145.372 737.652 145.752 737.158ZM151.113 735.923C151.47 736.485 152.183 737.121 152.289 737.846C153.275 744.527 156.082 750.445 159.602 756.106C159.95 756.666 159.739 757.573 159.787 758.319C154.924 756.239 152.691 746.233 150.46 741.511C149.952 740.124 150.559 738.287 148.844 737.79C149.569 737.192 150.282 736.608 151.113 735.923Z" fill="#2D7B47"/>
<path fill-rule="evenodd" clip-rule="evenodd" d="M95.491 619.523C81.4752 646.907 82.8393 674.563 105.839 696.448C108.657 699.251 111.274 702.54 111.508 706.652C111.621 730.561 87.8626 762.459 118.704 776.709C126.723 781.102 138.432 780.986 142.687 790.235C148.099 799.812 143.878 811.273 148.948 820.862C149.682 822.159 151.516 826.631 152.267 827.128C159.367 831.977 166.859 835.785 174.47 839.903C157.264 815.988 165.636 810.429 157.23 787.169C148.219 769.229 132.642 761.835 128.4 739.821C126.492 732.912 128.51 726.004 128.551 719.042C128.56 718.872 128.581 718.594 128.49 718.538C125.845 716.879 127.434 714.064 126.687 711.882C125.785 707.196 124.126 702.656 121.526 698.646C116.938 692.351 111.364 686.532 107.657 679.641C102.183 669.358 98.6527 658.147 96.4133 646.738C95.5534 642.471 95.1713 638.054 95.0841 633.696C94.9967 629.355 95.5486 625 95.8148 620.65C95.8365 620.318 95.8276 619.984 95.491 619.523ZM156.672 803.629C157.173 804.183 157.983 804.673 158.116 805.305C159.003 813.982 161.674 822.356 166.886 829.628C162.139 831.626 153.534 806.908 156.672 803.629ZM153.209 802.433C155.607 805.82 154.546 810.977 155.658 814.979C156.595 820.206 159.106 824.806 161.885 829.378C156.076 828.636 149.823 805.779 153.209 802.433ZM116.2 754.927C116.663 755.359 117.407 755.715 117.549 756.235C119.849 765.184 125.349 771.539 132.646 776.97C126.459 778.15 112.643 759.613 116.2 754.927ZM118.418 747.11C118.847 747.7 119.52 748.241 119.653 748.892C120.144 758.849 127.576 766.789 134.116 773.677C133.953 773.863 133.791 774.05 133.628 774.236C130.623 773.452 125.974 767.141 123.619 764.654C120.694 760.872 115.82 751.585 118.418 747.11ZM110.427 759.115C115.297 762.652 117.019 769.323 122.032 772.883C121.892 773.129 121.753 773.376 121.612 773.623C117.557 772.126 115.269 768.319 112.505 765.228C111.297 763.402 109.415 761.451 110.427 759.115ZM121.923 741.104C122.328 741.623 123.008 742.102 123.094 742.669C124.171 749.76 126.786 756.319 130.161 762.56C131.672 765.987 135.108 768.601 136.054 772.208C135.584 772.125 135.038 772.161 134.663 771.926C133.49 770.528 132.53 768.79 131.442 767.288C126.259 759.727 121.916 751.95 120.798 742.551C121.067 742.205 121.496 741.655 121.923 741.104ZM123.36 734.07C124.167 732.848 125.226 733.173 125.908 734.464C126.164 735.004 125.957 735.748 126.026 736.395C125.972 744.958 130.423 752.419 134.035 759.899C136.045 763.677 138.878 767.015 141.303 770.577C141.541 770.926 141.486 771.475 141.567 771.931C139.623 771.909 138.613 770.044 137.43 768.768C130.044 758.453 123.058 747.392 123.36 734.07ZM94.048 640.783C94.5545 641.725 95.3215 642.525 94.8402 643.643C94.7354 647.172 94.0443 650.816 94.6754 654.21C96.4458 663.72 99.7192 672.694 106.346 680.081C107.018 680.828 107.224 681.596 106.285 682.405C97.7144 672.655 87.7935 653.485 94.048 640.783ZM90.6427 653.119C91.5245 653.716 91.6157 654.485 91.5574 655.47C91.957 658.177 92.053 660.986 92.8793 663.56C94.7644 669.096 97.3389 674.441 100.346 679.469C100.256 679.611 100.165 679.756 100.071 679.897C95.8538 678.47 93.8796 668.967 91.6723 665.055C89.631 661.651 89.8045 657.806 89.7572 653.986C89.7512 653.701 90.3326 653.41 90.6427 653.119Z" fill="#2D7B47"/>
</g>
<path id="path 1" d="M186.549 860.245C185.373 865.999 181.776 872.097 179.585 877.683C176.914 883.948 176.15 890.838 178.097 897.454C180.006 910.022 186.448 921.375 191.499 932.885C197.279 941.633 199.003 951.478 199.888 961.77C199.927 967.011 200.835 972.096 202.621 977.027C203.83 982.335 207.294 986.571 208.9 991.639C210.268 994.045 211.733 996.499 212.021 999.337C212.656 1003.19 213.642 1020.86 213.408 1023.36C211.863 1031.22 211.415 1039.11 212.527 1047.05C213.67 1055.13 215.323 1063.14 217.343 1071.05C217.592 1072.06 218.009 1073.1 219.22 1072.78C217.143 1058.18 212.498 1043.81 215.038 1029.06C215.993 1022.87 217.327 1016.71 216.568 1010.36C215.082 997.322 210.629 984.829 203.971 973.682C203.007 969.255 201.514 947.658 200.496 943.104C196.667 923.161 176.308 906.34 182.722 884.9C185.022 877.409 186.946 870.281 189.116 862.628C191.562 868.461 196.173 872.771 199.692 877.95C205.826 885.468 196.738 892.432 201.511 904.716C200.171 905.303 200.673 906.559 200.965 907.258C203.831 915.749 210.699 920.967 217.299 926.452C220.064 929.2 222.439 932.338 225.044 935.253C225.417 935.67 226.129 935.784 226.684 936.038C225.127 929.55 215.472 923.035 210.529 918.465C206.042 914.977 203.691 909.868 201.511 904.716C207.712 915.738 220.615 920.847 227.979 931.006C246.197 952.672 243.182 982.997 237.65 1008.85C237.454 1009.99 237.125 1011.33 236.377 1012.12C233.746 1016.23 233.908 1021.5 233.019 1026.19C229.403 1040.35 230.711 1054.74 232.164 1069.1C232.511 1075.25 234.046 1081.21 235.397 1087.2C236.028 1090.06 236.343 1093.04 237.361 1095.75C238.352 1098.4 237.843 1101.57 240.142 1103.75C240.646 1105.9 240.329 1108.25 239.255 1110.28C238.555 1110.15 221.84 1107.62 217.306 1079.4C215.468 1067.97 212.622 1056.8 207.556 1046.36C204.494 1040.7 203.83 1034 199.842 1028.88C197.656 1025.98 196.634 1022.17 192.851 1020.49C180.864 1012.52 179.772 1005.38 177.728 991.999C175.905 980.062 181.319 968.712 183.406 957.171C184.666 946.431 189.092 934.543 183.039 924.568C178.969 916.966 173.3 910.133 171.137 901.639C170.055 897.579 167.77 893.437 167.577 889.281C167.656 881.932 170.165 875.341 175.417 870.015C178.412 866.977 181.51 864.038 184.634 861.132C185.216 860.591 186.145 860.423 186.549 860.245ZM226.31 1039.3C226.455 1040.36 226.411 1042.35 227.941 1042.12C229.323 1041.88 228.323 1040.58 228.381 1039.73C228.355 1025.21 233.964 1011.65 236.722 997.562C239.208 986.212 238.342 974.438 237.04 962.983C236.302 956.896 233.902 951.22 231.36 945.659C230.718 944.256 230.482 944.228 228.662 944.476C236.6 960.94 238.071 980.36 234.061 998.094C231.224 1011.81 226.265 1025.14 226.31 1039.3ZM190.835 880.145C190.255 882.536 191.208 884.891 191.511 887.262C190.746 885.078 190.883 882.406 188.728 881.005C187.812 885.178 189.663 888.902 189.341 893.023C189.714 895.244 188.689 898.679 190.198 900.343C191.096 898.586 191.49 897.008 191.261 895.15C191.148 892.552 191.801 889.865 191.491 887.225C193.277 891.71 191.821 896.322 192.45 900.922C194.936 899.217 193.781 881.854 190.835 880.145ZM194.87 875.979C194.639 876.046 194.408 876.112 194.177 876.178C194.082 878.652 195.577 880.859 196.393 883.132C198.495 888.057 194.919 894.692 198.439 898.945C198.673 898.655 199.114 898.364 199.11 898.077C198.541 890.756 200.811 881.53 194.87 875.979ZM210.964 951.235C210.661 948.514 211.683 945.108 209.574 943.01C209.295 943.534 208.776 944.057 208.774 944.582C207.745 955.115 210.445 964.865 214.895 974.336C216.952 979.273 220.067 983.787 220.67 989.3C220.733 989.879 221.38 990.394 221.757 990.938C222.009 990.852 222.261 990.768 222.514 990.683C220.789 976.855 209.846 965.76 210.964 951.235ZM221.392 1001.73C221.194 990.115 214.587 980.384 209.613 970.283C204.265 960.438 208.579 948.842 204.718 938.602C200.609 928.177 196.208 917.021 188.821 908.581C188.626 908.8 188.432 909.021 188.237 909.24C192.67 916.488 196.171 924.234 199.945 931.835C202.014 936.062 203.343 940.528 203.734 945.213C204.132 949.995 204.39 954.792 204.553 959.588C204.99 969.392 211.711 977.178 215.583 985.83C221.568 998.106 219.941 1012.68 219.651 1025.98C219.576 1027.61 218.368 1029.21 219.633 1030.68C223.605 1021.91 221.719 1011.19 221.392 1001.73ZM195.983 1009.78C195.68 1006.72 193.453 1004.2 192.192 1001.45C189.858 997.301 188.689 992.828 188.296 988.119C188.339 986.581 188.044 985.356 186.585 984.594C186.306 985.093 185.71 985.659 185.798 986.082C187.06 994.68 189.933 1002.91 195.33 1009.81C195.548 1009.8 195.765 1009.79 195.983 1009.78ZM183.793 988.787C183.502 986.923 183.363 985.036 183.151 983.16C183.064 982.389 183.353 981.223 182.074 981.414C181.582 981.488 181.222 982.441 181.084 982.621C181.665 990.178 182.887 996.927 185.59 1003.38C187.452 1007.05 189.2 1013.55 193.042 1015.32C193.028 1014.76 193.238 1014.04 192.968 1013.67C187.549 1006.24 185.183 997.691 183.793 988.787Z" fill="#2D7B47"/>
</g>
<g id="right-mid-strand-2">
<g id="Union_2">
<path fill-rule="evenodd" clip-rule="evenodd" d="M73.937 1.85156C83.8842 35.6611 118.629 42.2853 104.992 84.1988C94.9468 110.756 121.958 129.29 113.793 156.251C112.267 162.815 110.929 169.453 110.068 176.132C109.646 179.399 110.429 182.839 110.789 186.189C111.205 190.054 112.139 198.085 111.84 198.06C108.253 218.261 124.002 241.389 111.84 259.677C100.572 275.672 93.9655 282.849 95.4561 303.696C95.7704 308.757 93.9297 313.307 92.6848 318.067C93.9282 318.187 94.752 318.266 95.838 318.37C98.4291 315.575 99.4817 311.893 99.8132 307.917C99.7137 295.444 106.265 284.135 114.502 275.008C127.193 262.114 135.207 252.778 126.3 234.458C124.18 230.372 122.538 226.038 120.445 221.936C113.897 209.009 118.704 194.152 118.759 180.349C118.728 173.042 121.193 166.304 124.977 160.15C130.828 151.058 137.881 142.214 138.459 130.964C140.451 114.075 122.821 103.767 127.979 86.1831C130.752 75.1816 128.939 62.4187 119.519 55.0013C116.704 52.7385 115.114 49.6636 113.363 46.5325C109.221 37.2399 109.201 26.7971 98.7926 21.6799C96.239 20.3112 94.0553 18.264 91.6356 16.6287C84.8289 12.6573 78.0305 8.98541 73.937 1.85156ZM112.314 72.1451C114.602 74.1386 113.258 77.1879 112.664 79.643C109.632 86.8483 110.548 94.1101 110.999 101.566C110.563 101.203 109.837 100.907 109.737 100.468C109 97.2116 108.387 93.9298 107.735 90.6547C107.874 90.6062 110.03 79.4022 111.275 73.8872C111.428 73.2607 111.958 72.7244 112.314 72.1451ZM104.116 34.0444C105.948 34.5192 106.057 36.1143 106.397 37.6858C107.578 42.4977 109.401 46.9928 112.303 51.0783C118.852 60.1435 125.329 69.5238 126.464 80.9617C127.34 87.0096 126.766 93.9545 122.643 98.6158C122.452 98.5248 122.262 98.4301 122.071 98.3391C123.288 86.9894 126.756 85.1257 122.28 72.4947C119.903 64.5901 114.861 58.129 110.113 51.6213C106.548 46.731 105.433 41.0528 103.431 35.6412C103.286 35.2484 103.871 34.581 104.116 34.0444ZM115.112 71.6069C119.179 70.303 118.541 79.5661 119.072 81.4234C118.647 86.875 118.779 92.3487 114.845 95.6466C114.475 94.6014 114.074 93.654 114.698 92.6129C116.529 86.1517 117.932 79.1611 114.882 72.7932C114.729 72.492 114.905 71.6821 115.112 71.6069ZM118.013 67.4585C124.546 71.2256 124.124 89.1664 120.065 94.77C119.818 94.7257 119.571 94.6811 119.324 94.6334C119.878 85.7852 122.392 77.237 117.712 68.8509C117.546 68.5189 117.9 67.9292 118.013 67.4585Z" fill="#2D7B47"/>
<path fill-rule="evenodd" clip-rule="evenodd" d="M108.549 205.556C108.42 205.7 108.18 205.847 108.178 205.996C108.12 211.554 106.089 216.436 102.801 220.772C93.2792 233.238 90.1547 249.02 92.4152 264.276C92.1122 272.369 93.5623 280.792 90.4574 288.481C87.6649 295.477 86.8782 302.177 90.4014 309.397C91.23 297.348 91.8899 285.98 97.4288 275.172C102.507 265.154 107.018 254.847 111.594 244.592C113.818 239.527 113.426 234.364 112.194 229.099C110.604 221.355 108.27 213.617 109.041 205.635C108.877 205.609 108.713 205.582 108.549 205.556ZM107.531 226.804C107.917 226.598 108.792 226.751 109.095 227.08C109.872 228.007 109.667 229.427 109.554 230.567C111.22 241.912 107.982 253.245 101.008 262.245C100.685 262.126 100.362 262.006 100.039 261.887C100.173 261.131 100.085 260.227 100.475 259.641C105.23 252.485 107.422 244.56 107.544 236.047C107.926 233.362 106.191 228.996 107.531 226.804ZM104.216 232.716C105.361 232.482 105.606 233.401 105.716 234.391C106.609 242.968 104.489 251.493 98.8336 258.081C98.5623 257.958 98.2908 257.835 98.0195 257.712C98.2148 254.94 99.9858 252.765 100.986 250.273C103.022 245.189 103.584 239.865 103.402 234.424C103.382 233.837 103.831 232.794 104.216 232.716ZM100.036 235.416C100.409 236.212 101.103 236.964 101.294 237.795C99.9401 243.259 100.176 251.893 95.2851 255.367C94.704 253.262 96.6531 251.7 96.9875 249.767C97.8739 245.683 99.5797 235.981 100.036 235.416Z" fill="#2D7B47"/>
<path fill-rule="evenodd" clip-rule="evenodd" d="M72.9297 8.29484C74.2092 15.5346 77.0378 22.2462 80.9545 28.4635C92.6272 48.6264 63.1614 62.0839 76.935 91.0276C81.5564 100.079 89.3689 107.412 93.3002 116.95C97.4633 126.063 90.6491 134.763 89.067 143.6C84.0241 160.948 98.4208 170.524 100.364 186.731C101.121 189.335 103.675 191.077 104.863 193.493C106.345 196.223 107.349 199.221 108.18 202.237C110.694 196.757 108.805 191.494 108.275 186.171C106.078 172.934 109.655 159.966 111.812 146.95C113.818 138.701 111.166 131.978 106.917 124.978C102.051 115.695 99.0735 105.889 99.732 95.3503C100.387 82.9862 106.407 71.0147 103.899 58.534C100.647 46.1754 91.4576 36.3416 84.215 26.1144C80.1785 20.7654 76.5067 15.2107 73.7702 9.0716C73.634 8.76388 73.4464 8.48233 72.9297 8.29484ZM90.4321 107.101C91.1292 107.352 92.1238 107.394 92.4776 107.888C99.0879 116.003 99.5153 126.089 97.5466 135.801C99.7761 134.317 99.611 138.195 99.0407 139.502C97.813 143.155 97.4377 146.908 97.6291 150.723C97.9003 156.134 99.2384 161.241 102.193 165.84C104.05 167.008 103.989 169.288 104.332 171.268C104.123 171.316 103.914 171.363 103.706 171.411C96.5337 161.171 93.2954 150.097 96.7393 137.552C93.3918 144.522 91.9023 152.725 95.6769 159.929C99.0201 168.034 104.739 176.408 102.867 185.574C102.625 185.574 102.382 185.571 102.14 185.571C101.322 179.588 100.749 173.769 97.4476 168.525C81.2549 140.38 102.288 137.391 94.7407 116.138C93.5845 113.012 91.0463 110.44 90.4321 107.101ZM101.397 138.305C101.7 138.785 102.298 139.287 102.261 139.742C101.781 147.792 104.147 155.554 105.017 163.488C104.69 163.582 104.362 163.676 104.036 163.769C102.425 160.259 98.6458 140.441 101.397 138.305ZM81.7225 56.4265C84.2795 57.9686 80.2599 66.3357 80.3986 69.2263C79.4274 75.8152 81.7455 81.9146 83.2625 88.1823C83.0106 88.2296 82.7587 88.277 82.5065 88.3209C77.4718 78.9238 76.0488 67.3045 80.3963 57.3041C80.5562 56.8818 81.2523 56.4505 81.7225 56.4265Z" fill="#2D7B47"/>
</g>
<g id="Union_3">
<path fill-rule="evenodd" clip-rule="evenodd" d="M18.9441 151.942C15.4701 175.28 28.3378 194.899 41.4144 212.683C46.5126 220.565 49.3241 229.741 51.2413 238.848C51.7102 242.049 51.5032 249.818 51.1283 249.817C49.2133 266.517 58.5037 282.156 69.6552 293.734C77.9586 302.371 82.67 312.61 83.8952 324.572C84.5324 330.793 85.6485 336.976 86.8029 343.128C90.9684 355.067 100.434 364.08 106.882 374.767C107.016 374.812 107.149 374.858 107.283 374.903C107.244 374.182 107.401 373.376 107.136 372.751C104.829 367.307 102.306 361.951 100.132 356.456C94.5979 343.871 102.639 329.809 98.7902 316.798C97.2146 312.483 94.5267 308.514 91.8757 304.764C87.0287 298.728 81.205 292.596 81.5555 284.408C82.0162 265.44 88.0785 260.139 75.4754 242.383C70.1353 235.089 62.4051 230.369 55.7494 224.453C48.758 218.038 48.819 207.831 47.0243 199.167C46.094 189.203 40.016 181.222 34.3867 173.332C28.2937 166.642 20.9994 161.731 18.9441 151.942ZM53.0708 228.863C59.0666 236.432 56.1983 247.174 56.9507 256.129C58.5229 267.97 64.7155 278.874 72.9415 287.398C78.2638 292.711 82.9398 298.589 85.3273 305.845C86.5337 309.294 87.9503 316.31 85.4523 319.091C84.833 318.409 84.1355 317.793 84.4755 316.783C85.6867 304.835 77.9218 295.618 70.1306 287.676C64.5054 281.257 59.5035 274.317 56.7699 266.17C55.1189 262.24 53.7274 258.203 54.3149 253.79C54.5815 251.83 54.3756 246.46 54.3861 245.745C54.4544 241.182 54.356 236.63 52.7578 232.244C52.4171 231.308 52.5339 230.205 52.4403 229.177C52.6501 229.071 52.8607 228.965 53.0708 228.863ZM60.4528 257.096C60.8089 254.883 63.0668 254.368 63.0134 257.048C64.0703 269.109 70.6252 279.687 78.319 288.699C78.1297 288.911 77.9405 289.123 77.7512 289.335C68.9386 283.706 61.2705 267.404 60.4528 257.096ZM66.3025 259.111C66.8332 259.618 67.7506 260.069 67.8326 260.638C68.4227 264.739 69.6526 268.614 71.7097 272.191C73.6475 275.56 75.7615 278.828 77.7315 282.18C78.0029 282.642 77.8929 283.329 77.9597 283.911C76.9295 283.687 75.8967 283.567 75.4952 282.432C71.3892 275.178 65.9126 269.184 65.4148 260.267C65.5422 260.103 65.9227 259.605 66.3025 259.111ZM71.6635 257.876C72.0212 258.438 72.7334 259.074 72.8402 259.799C73.8257 266.48 76.6328 272.398 80.153 278.059C80.5007 278.619 80.2898 279.525 80.3382 280.271C75.4752 278.191 73.2416 268.186 71.0103 263.464C70.5027 262.077 71.1103 260.24 69.3944 259.743C70.1199 259.145 70.8328 258.561 71.6635 257.876Z" fill="#2D7B47"/>
<path fill-rule="evenodd" clip-rule="evenodd" d="M16.0416 141.484C2.02593 168.868 3.39026 196.523 26.3895 218.408C29.2074 221.211 31.8251 224.501 32.0586 228.613C32.1717 252.522 8.41337 284.42 39.2544 298.669C47.2735 303.063 58.9822 302.947 63.2381 312.196C68.6492 321.773 64.4282 333.234 69.4989 342.822C70.2324 344.12 72.0667 348.592 72.8178 349.089C79.9181 353.938 87.4107 357.746 95.0221 361.864C77.8156 337.948 86.1877 332.39 77.7815 309.13C68.7709 291.19 53.1923 283.796 48.951 261.781C47.0429 254.872 49.061 247.965 49.1018 241.003C49.1111 240.833 49.132 240.554 49.0407 240.499C46.3956 238.84 47.9849 236.025 47.2373 233.842C46.3354 229.157 44.6762 224.617 42.0765 220.607C37.4887 214.312 31.9149 208.493 28.2073 201.602C22.7335 191.318 19.2034 180.107 16.964 168.698C16.1041 164.431 15.7219 160.014 15.6348 155.657C15.5473 151.316 16.0993 146.96 16.3654 142.61C16.3871 142.278 16.3782 141.944 16.0416 141.484ZM77.2227 325.59C77.7239 326.144 78.534 326.633 78.6667 327.265C79.5532 335.942 82.2255 344.316 87.4378 351.589C82.6906 353.587 74.0844 328.869 77.2227 325.59ZM73.76 324.393C76.1577 327.78 75.0963 332.938 76.2087 336.94C77.1453 342.167 79.6573 346.766 82.437 351.338C76.6276 350.597 70.3733 327.738 73.76 324.393ZM36.7503 276.887C37.2141 277.319 37.9578 277.676 38.0999 278.196C40.3993 287.145 45.8994 293.5 53.1964 298.931C47.0095 300.111 33.1931 281.573 36.7503 276.887ZM38.9688 269.071C39.398 269.661 40.071 270.201 40.2032 270.852C40.6945 280.809 48.1271 288.75 54.6665 295.638C54.5039 295.824 54.3412 296.01 54.179 296.196C51.1742 295.412 46.5244 289.102 44.1695 286.615C41.2447 282.833 36.3715 273.546 38.9688 269.071ZM30.9789 281.076C35.8484 284.613 37.5701 291.284 42.5829 294.844C42.4432 295.09 42.3031 295.336 42.1631 295.583C38.1072 294.086 35.8195 290.28 33.0557 287.189C31.8479 285.363 29.9667 283.412 30.9789 281.076ZM42.474 263.064C42.8785 263.583 43.5591 264.063 43.6451 264.63C44.7212 271.721 47.3362 278.28 50.7119 284.521C52.2227 287.948 55.6586 290.562 56.6047 294.169C56.1344 294.086 55.5895 294.122 55.2151 293.887C54.0412 292.489 53.0804 290.751 51.993 289.249C46.8096 281.688 42.4669 273.911 41.3487 264.512C41.618 264.166 42.0461 263.616 42.474 263.064ZM43.9117 256.031C44.7182 254.809 45.7768 255.133 46.4591 256.423C46.7144 256.964 46.508 257.709 46.577 258.356C46.5229 266.919 50.9739 274.38 54.5853 281.86C56.5954 285.638 59.4285 288.976 61.8532 292.538C62.0911 292.887 62.0367 293.435 62.118 293.891C60.1735 293.869 59.1631 292.005 57.9802 290.729C50.5944 280.414 43.61 269.353 43.9117 256.031ZM14.5987 162.744C15.1052 163.686 15.8724 164.486 15.3909 165.604C15.286 169.133 14.595 172.776 15.226 176.17C16.9964 185.68 20.2697 194.655 26.8962 202.042C27.5684 202.789 27.7748 203.557 26.8356 204.366C18.2651 194.616 8.34417 175.446 14.5987 162.744ZM11.1943 175.079C12.076 175.676 12.1663 176.445 12.1081 177.43C12.5077 180.137 12.6037 182.946 13.43 185.52C15.315 191.055 17.8896 196.401 20.8965 201.429C20.8062 201.571 20.7156 201.716 20.6218 201.857C16.4046 200.43 14.4302 190.928 12.2229 187.015C10.1817 183.612 10.3551 179.767 10.3078 175.947C10.3017 175.661 10.8843 175.37 11.1943 175.079Z" fill="#2D7B47"/>
</g>
<path id="path180" d="M107.108 382.19C105.932 387.944 102.335 394.043 100.143 399.628C97.4731 405.893 96.7088 412.784 98.6559 419.399C100.565 431.967 107.006 443.32 112.058 454.83C117.838 463.578 119.561 473.423 120.447 483.715C120.486 488.956 121.394 494.041 123.18 498.972C124.389 504.281 127.853 508.516 129.459 513.584C130.827 515.991 132.292 518.444 132.579 521.283C133.214 525.134 134.201 542.809 133.967 545.306C132.422 553.169 131.973 561.057 133.086 568.992C134.229 577.076 135.882 585.083 137.902 592.994C138.151 594.006 138.568 595.042 139.778 594.722C137.702 580.129 133.057 565.76 135.597 551.008C136.551 544.811 137.886 538.657 137.126 532.303C135.641 519.268 131.187 506.774 124.529 495.627C123.566 491.2 122.073 469.604 121.054 465.049C117.226 445.106 96.8662 428.286 103.28 406.845C105.581 399.354 107.504 392.226 109.675 384.573C112.121 390.406 116.732 394.717 120.251 399.895C126.385 407.414 117.297 414.378 122.07 426.661C120.73 427.249 121.232 428.505 121.523 429.203C124.39 437.694 131.257 442.912 137.857 448.397C140.622 451.145 142.998 454.283 145.603 457.198C145.976 457.615 146.688 457.729 147.242 457.983C145.685 451.496 136.031 444.98 131.087 440.411C126.601 436.922 124.25 431.813 122.07 426.661C128.271 437.684 141.173 442.792 148.537 452.951C166.755 474.617 163.741 504.943 158.209 530.796C158.012 531.94 157.684 533.274 156.935 534.065C154.304 538.173 154.466 543.448 153.578 548.14C149.962 562.298 151.269 576.683 152.723 591.041C153.07 597.194 154.604 603.158 155.956 609.144C156.587 612.006 156.901 614.984 157.92 617.7C158.911 620.343 158.402 623.519 160.701 625.692C161.205 627.847 160.887 630.191 159.814 632.227C159.114 632.091 142.398 629.562 137.865 601.346C136.027 589.911 133.181 578.75 128.114 568.305C125.053 562.645 124.389 555.946 120.4 550.825C118.215 547.929 117.193 544.116 113.41 542.432C101.422 534.469 100.331 527.327 98.2867 513.944C96.464 502.007 101.877 490.658 103.965 479.116C105.225 468.376 109.651 456.488 103.597 446.514C99.5274 438.911 93.8588 432.078 91.6956 423.584C90.6132 419.525 88.3286 415.382 88.1359 411.227C88.2146 403.877 90.7234 397.287 95.9753 391.961C98.9709 388.923 102.068 385.983 105.193 383.077C105.774 382.536 106.703 382.369 107.108 382.19ZM146.869 561.246C147.013 562.301 146.969 564.297 148.5 564.066C149.881 563.827 148.882 562.522 148.94 561.677C148.914 547.16 154.523 533.591 157.28 519.508C159.767 508.157 158.9 496.384 157.598 484.929C156.861 478.842 154.461 473.165 151.918 467.604C151.277 466.201 151.041 466.174 149.221 466.421C157.159 482.886 158.629 502.305 154.62 520.039C151.782 533.757 146.823 547.084 146.869 561.246ZM111.393 402.09C110.813 404.481 111.767 406.837 112.07 409.207C111.304 407.023 111.442 404.351 109.286 402.951C108.371 407.123 110.221 410.847 109.899 414.968C110.273 417.189 109.248 420.624 110.756 422.288C111.655 420.531 112.049 418.953 111.819 417.095C111.707 414.497 112.359 411.81 112.05 409.171C113.835 413.655 112.38 418.268 113.008 422.867C115.494 421.163 114.339 403.799 111.393 402.09ZM115.429 397.925C115.198 397.991 114.966 398.057 114.735 398.124C114.641 400.597 116.135 402.804 116.951 405.077C119.054 410.002 115.478 416.637 118.997 420.89C119.231 420.601 119.673 420.309 119.669 420.023C119.099 412.701 121.369 403.475 115.429 397.925ZM131.522 473.18C131.22 470.46 132.242 467.053 130.133 464.956C129.854 465.48 129.334 466.002 129.332 466.528C128.304 477.06 131.004 486.811 135.454 496.281C137.51 501.218 140.625 505.733 141.228 511.246C141.292 511.824 141.939 512.339 142.316 512.883C142.568 512.798 142.82 512.713 143.073 512.628C141.348 498.801 130.405 487.705 131.522 473.18ZM141.951 523.674C141.753 512.06 135.146 502.329 130.171 492.228C124.824 482.384 129.137 470.787 125.276 460.547C121.168 450.123 116.766 438.967 109.38 430.526C109.185 430.746 108.99 430.966 108.795 431.186C113.228 438.433 116.73 446.179 120.503 453.78C122.572 458.007 123.902 462.474 124.292 467.158C124.691 471.94 124.948 476.737 125.111 481.533C125.549 491.337 132.27 499.123 136.141 507.775C142.127 520.051 140.5 534.63 140.209 547.925C140.135 549.555 138.927 551.155 140.192 552.624C144.163 543.853 142.277 533.139 141.951 523.674ZM116.541 531.722C116.239 528.67 114.012 526.14 112.75 523.395C110.417 519.246 109.247 514.773 108.855 510.064C108.897 508.527 108.603 507.302 107.144 506.539C106.865 507.039 106.268 507.604 106.356 508.027C107.618 516.625 110.492 524.853 115.889 531.755C116.106 531.744 116.324 531.733 116.541 531.722ZM104.352 510.732C104.061 508.869 103.921 506.982 103.709 505.105C103.622 504.335 103.911 503.168 102.633 503.359C102.141 503.433 101.78 504.386 101.642 504.567C102.223 512.123 103.446 518.872 106.148 525.326C108.01 528.995 109.758 535.492 113.6 537.261C113.587 536.704 113.796 535.985 113.526 535.615C108.108 528.184 105.741 519.637 104.352 510.732Z" fill="#2D7B47"/>
</g>
</g>
</svg>
